<svg xmlns="http://www.w3.org/2000/svg" viewBox="0 0 128 128" role="img" aria-label="Wolt">
  <defs>
    <linearGradient id="bg" x1="18" y1="10" x2="108" y2="120" gradientUnits="userSpaceOnUse">
      <stop stop-color="#ffe7a0"/>
      <stop offset=".45" stop-color="#b86f25"/>
      <stop offset="1" stop-color="#261309"/>
    </linearGradient>
    <linearGradient id="steel" x1="22" y1="18" x2="110" y2="100" gradientUnits="userSpaceOnUse">
      <stop stop-color="#fff9df"/>
      <stop offset=".5" stop-color="#d9c69b"/>
      <stop offset="1" stop-color="#6d5436"/>
    </linearGradient>
  </defs>
  <circle cx="64" cy="64" r="61" fill="#1d130c"/>
  <circle cx="64" cy="64" r="56" fill="url(#bg)" stroke="#ffe6a4" stroke-width="3"/>
  <circle cx="64" cy="64" r="42" fill="#241409" stroke="#d99b3b" stroke-width="4"/>
  <g stroke="url(#steel)" stroke-width="10" stroke-linecap="round">
    <path d="M64 24v80"/>
    <path d="M24 64h80"/>
    <path d="M35.5 35.5l57 57"/>
    <path d="M92.5 35.5l-57 57"/>
  </g>
  <circle cx="64" cy="64" r="24" fill="#fff3bd" stroke="#4a2b12" stroke-width="5"/>
  <circle cx="64" cy="64" r="13" fill="#1d130c"/>
  <path d="M18 49c7-9 17-14 31-15h30c13 1 24 6 31 15" fill="none" stroke="#fff6dc" stroke-width="7" stroke-linecap="round" opacity=".9"/>
  <path d="M38 78l7-30 10 21 9-21 9 21 10-21 7 30" fill="none" stroke="#251407" stroke-width="7" stroke-linecap="round" stroke-linejoin="round"/>
  <path d="M38 78l7-30 10 21 9-21 9 21 10-21 7 30" fill="none" stroke="#ffe6a4" stroke-width="3" stroke-linecap="round" stroke-linejoin="round"/>
</svg>
